<mxfile host="app.diagrams.net" modified="2024-03-04T16:05:39.609Z" agent="Mozilla/5.0 (Windows NT 10.0; Win64; x64) AppleWebKit/537.36 (KHTML, like Gecko) Chrome/122.0.0.0 Safari/537.36 Edg/122.0.0.0" etag="WIEi3Bjtk13KZL64P7AA" version="23.1.5" type="device">
  <diagram id="R2lEEEUBdFMjLlhIrx00" name="Page-1">
    <mxGraphModel dx="815" dy="475" grid="1" gridSize="10" guides="1" tooltips="1" connect="1" arrows="1" fold="1" page="1" pageScale="1" pageWidth="850" pageHeight="1100" math="0" shadow="0" extFonts="Permanent Marker^https://fonts.googleapis.com/css?family=Permanent+Marker">
      <root>
        <mxCell id="0" />
        <mxCell id="1" parent="0" />
        <mxCell id="ld9ROGKfktrfoDJ3SX2z-22" style="edgeStyle=orthogonalEdgeStyle;rounded=0;orthogonalLoop=1;jettySize=auto;html=1;exitX=1;exitY=0.5;exitDx=0;exitDy=0;endArrow=none;endFill=0;" edge="1" parent="1" source="ld9ROGKfktrfoDJ3SX2z-1" target="ld9ROGKfktrfoDJ3SX2z-8">
          <mxGeometry relative="1" as="geometry" />
        </mxCell>
        <mxCell id="ld9ROGKfktrfoDJ3SX2z-1" value="Author" style="rounded=0;whiteSpace=wrap;html=1;" vertex="1" parent="1">
          <mxGeometry x="230" y="180" width="120" height="60" as="geometry" />
        </mxCell>
        <mxCell id="ld9ROGKfktrfoDJ3SX2z-2" value="&lt;u&gt;Author_ID&lt;/u&gt;" style="ellipse;whiteSpace=wrap;html=1;" vertex="1" parent="1">
          <mxGeometry x="100" y="130" width="70" height="40" as="geometry" />
        </mxCell>
        <mxCell id="ld9ROGKfktrfoDJ3SX2z-8" value="Book" style="rounded=0;whiteSpace=wrap;html=1;" vertex="1" parent="1">
          <mxGeometry x="490" y="180" width="120" height="60" as="geometry" />
        </mxCell>
        <mxCell id="ld9ROGKfktrfoDJ3SX2z-9" value="&lt;u&gt;Book_ID&lt;/u&gt;" style="ellipse;whiteSpace=wrap;html=1;" vertex="1" parent="1">
          <mxGeometry x="670" y="90" width="70" height="40" as="geometry" />
        </mxCell>
        <mxCell id="ld9ROGKfktrfoDJ3SX2z-10" value="Author_ID" style="ellipse;whiteSpace=wrap;html=1;" vertex="1" parent="1">
          <mxGeometry x="670" y="130" width="70" height="40" as="geometry" />
        </mxCell>
        <mxCell id="ld9ROGKfktrfoDJ3SX2z-11" value="Title" style="ellipse;whiteSpace=wrap;html=1;" vertex="1" parent="1">
          <mxGeometry x="670" y="170" width="70" height="40" as="geometry" />
        </mxCell>
        <mxCell id="ld9ROGKfktrfoDJ3SX2z-12" value="Genre" style="ellipse;whiteSpace=wrap;html=1;" vertex="1" parent="1">
          <mxGeometry x="670" y="210" width="70" height="40" as="geometry" />
        </mxCell>
        <mxCell id="ld9ROGKfktrfoDJ3SX2z-37" style="rounded=0;orthogonalLoop=1;jettySize=auto;html=1;exitX=0;exitY=0.5;exitDx=0;exitDy=0;entryX=1;entryY=0.75;entryDx=0;entryDy=0;endArrow=none;endFill=0;" edge="1" parent="1" source="ld9ROGKfktrfoDJ3SX2z-13" target="ld9ROGKfktrfoDJ3SX2z-8">
          <mxGeometry relative="1" as="geometry" />
        </mxCell>
        <mxCell id="ld9ROGKfktrfoDJ3SX2z-13" value="ISBN" style="ellipse;whiteSpace=wrap;html=1;" vertex="1" parent="1">
          <mxGeometry x="670" y="250" width="70" height="40" as="geometry" />
        </mxCell>
        <mxCell id="ld9ROGKfktrfoDJ3SX2z-14" value="Pub_Year" style="ellipse;whiteSpace=wrap;html=1;" vertex="1" parent="1">
          <mxGeometry x="670" y="290" width="70" height="40" as="geometry" />
        </mxCell>
        <mxCell id="ld9ROGKfktrfoDJ3SX2z-23" style="edgeStyle=orthogonalEdgeStyle;rounded=0;orthogonalLoop=1;jettySize=auto;html=1;exitX=0.5;exitY=0;exitDx=0;exitDy=0;entryX=0.5;entryY=1;entryDx=0;entryDy=0;" edge="1" parent="1" source="ld9ROGKfktrfoDJ3SX2z-15" target="ld9ROGKfktrfoDJ3SX2z-8">
          <mxGeometry relative="1" as="geometry" />
        </mxCell>
        <mxCell id="ld9ROGKfktrfoDJ3SX2z-15" value="Borrower" style="rounded=0;whiteSpace=wrap;html=1;" vertex="1" parent="1">
          <mxGeometry x="490" y="350" width="120" height="60" as="geometry" />
        </mxCell>
        <mxCell id="ld9ROGKfktrfoDJ3SX2z-16" value="&lt;u&gt;Borrower_ID&lt;/u&gt;" style="ellipse;whiteSpace=wrap;html=1;" vertex="1" parent="1">
          <mxGeometry x="360" y="280" width="70" height="40" as="geometry" />
        </mxCell>
        <mxCell id="ld9ROGKfktrfoDJ3SX2z-24" value="First_Name" style="ellipse;whiteSpace=wrap;html=1;" vertex="1" parent="1">
          <mxGeometry x="100" y="170" width="70" height="40" as="geometry" />
        </mxCell>
        <mxCell id="ld9ROGKfktrfoDJ3SX2z-25" value="Nationality" style="ellipse;whiteSpace=wrap;html=1;" vertex="1" parent="1">
          <mxGeometry x="100" y="250" width="70" height="40" as="geometry" />
        </mxCell>
        <mxCell id="ld9ROGKfktrfoDJ3SX2z-29" style="rounded=0;orthogonalLoop=1;jettySize=auto;html=1;exitX=1;exitY=0.5;exitDx=0;exitDy=0;entryX=0;entryY=0.5;entryDx=0;entryDy=0;endArrow=none;endFill=0;" edge="1" parent="1" source="ld9ROGKfktrfoDJ3SX2z-26" target="ld9ROGKfktrfoDJ3SX2z-1">
          <mxGeometry relative="1" as="geometry" />
        </mxCell>
        <mxCell id="ld9ROGKfktrfoDJ3SX2z-26" value="Last_Name" style="ellipse;whiteSpace=wrap;html=1;" vertex="1" parent="1">
          <mxGeometry x="100" y="210" width="70" height="40" as="geometry" />
        </mxCell>
        <mxCell id="ld9ROGKfktrfoDJ3SX2z-27" style="rounded=0;orthogonalLoop=1;jettySize=auto;html=1;exitX=1;exitY=0.5;exitDx=0;exitDy=0;entryX=-0.013;entryY=0.124;entryDx=0;entryDy=0;entryPerimeter=0;endArrow=none;endFill=0;" edge="1" parent="1" source="ld9ROGKfktrfoDJ3SX2z-2" target="ld9ROGKfktrfoDJ3SX2z-1">
          <mxGeometry relative="1" as="geometry" />
        </mxCell>
        <mxCell id="ld9ROGKfktrfoDJ3SX2z-28" style="rounded=0;orthogonalLoop=1;jettySize=auto;html=1;exitX=1;exitY=0.5;exitDx=0;exitDy=0;entryX=-0.009;entryY=0.33;entryDx=0;entryDy=0;entryPerimeter=0;endArrow=none;endFill=0;" edge="1" parent="1" source="ld9ROGKfktrfoDJ3SX2z-24" target="ld9ROGKfktrfoDJ3SX2z-1">
          <mxGeometry relative="1" as="geometry" />
        </mxCell>
        <mxCell id="ld9ROGKfktrfoDJ3SX2z-30" style="rounded=0;orthogonalLoop=1;jettySize=auto;html=1;exitX=1;exitY=0.5;exitDx=0;exitDy=0;entryX=-0.007;entryY=0.791;entryDx=0;entryDy=0;entryPerimeter=0;endArrow=none;endFill=0;" edge="1" parent="1" source="ld9ROGKfktrfoDJ3SX2z-25" target="ld9ROGKfktrfoDJ3SX2z-1">
          <mxGeometry relative="1" as="geometry" />
        </mxCell>
        <mxCell id="ld9ROGKfktrfoDJ3SX2z-32" style="rounded=0;orthogonalLoop=1;jettySize=auto;html=1;exitX=0;exitY=0.5;exitDx=0;exitDy=0;entryX=0.994;entryY=0.067;entryDx=0;entryDy=0;entryPerimeter=0;endArrow=none;endFill=0;" edge="1" parent="1" source="ld9ROGKfktrfoDJ3SX2z-9" target="ld9ROGKfktrfoDJ3SX2z-8">
          <mxGeometry relative="1" as="geometry" />
        </mxCell>
        <mxCell id="ld9ROGKfktrfoDJ3SX2z-33" style="rounded=0;orthogonalLoop=1;jettySize=auto;html=1;exitX=0;exitY=0.5;exitDx=0;exitDy=0;entryX=1;entryY=0.167;entryDx=0;entryDy=0;entryPerimeter=0;endArrow=none;endFill=0;" edge="1" parent="1" source="ld9ROGKfktrfoDJ3SX2z-10" target="ld9ROGKfktrfoDJ3SX2z-8">
          <mxGeometry relative="1" as="geometry" />
        </mxCell>
        <mxCell id="ld9ROGKfktrfoDJ3SX2z-35" style="rounded=0;orthogonalLoop=1;jettySize=auto;html=1;exitX=0;exitY=0.5;exitDx=0;exitDy=0;entryX=1.022;entryY=0.372;entryDx=0;entryDy=0;entryPerimeter=0;endArrow=none;endFill=0;" edge="1" parent="1" source="ld9ROGKfktrfoDJ3SX2z-11" target="ld9ROGKfktrfoDJ3SX2z-8">
          <mxGeometry relative="1" as="geometry" />
        </mxCell>
        <mxCell id="ld9ROGKfktrfoDJ3SX2z-36" style="rounded=0;orthogonalLoop=1;jettySize=auto;html=1;exitX=0;exitY=0.5;exitDx=0;exitDy=0;entryX=1.024;entryY=0.539;entryDx=0;entryDy=0;entryPerimeter=0;endArrow=none;endFill=0;" edge="1" parent="1" source="ld9ROGKfktrfoDJ3SX2z-12" target="ld9ROGKfktrfoDJ3SX2z-8">
          <mxGeometry relative="1" as="geometry" />
        </mxCell>
        <mxCell id="ld9ROGKfktrfoDJ3SX2z-38" style="rounded=0;orthogonalLoop=1;jettySize=auto;html=1;exitX=0;exitY=0.5;exitDx=0;exitDy=0;entryX=1.003;entryY=0.923;entryDx=0;entryDy=0;entryPerimeter=0;endArrow=none;endFill=0;" edge="1" parent="1" source="ld9ROGKfktrfoDJ3SX2z-14" target="ld9ROGKfktrfoDJ3SX2z-8">
          <mxGeometry relative="1" as="geometry" />
        </mxCell>
        <mxCell id="ld9ROGKfktrfoDJ3SX2z-39" value="First_Name" style="ellipse;whiteSpace=wrap;html=1;" vertex="1" parent="1">
          <mxGeometry x="360" y="320" width="70" height="40" as="geometry" />
        </mxCell>
        <mxCell id="ld9ROGKfktrfoDJ3SX2z-40" value="Last_Name" style="ellipse;whiteSpace=wrap;html=1;" vertex="1" parent="1">
          <mxGeometry x="360" y="360" width="70" height="40" as="geometry" />
        </mxCell>
        <mxCell id="ld9ROGKfktrfoDJ3SX2z-41" value="Email" style="ellipse;whiteSpace=wrap;html=1;" vertex="1" parent="1">
          <mxGeometry x="360" y="400" width="70" height="40" as="geometry" />
        </mxCell>
        <mxCell id="ld9ROGKfktrfoDJ3SX2z-42" value="Address" style="ellipse;whiteSpace=wrap;html=1;" vertex="1" parent="1">
          <mxGeometry x="360" y="440" width="70" height="40" as="geometry" />
        </mxCell>
        <mxCell id="ld9ROGKfktrfoDJ3SX2z-43" style="rounded=0;orthogonalLoop=1;jettySize=auto;html=1;exitX=1;exitY=0.5;exitDx=0;exitDy=0;entryX=0;entryY=0.167;entryDx=0;entryDy=0;entryPerimeter=0;endArrow=none;endFill=0;" edge="1" parent="1" source="ld9ROGKfktrfoDJ3SX2z-16" target="ld9ROGKfktrfoDJ3SX2z-15">
          <mxGeometry relative="1" as="geometry" />
        </mxCell>
        <mxCell id="ld9ROGKfktrfoDJ3SX2z-44" style="rounded=0;orthogonalLoop=1;jettySize=auto;html=1;exitX=1;exitY=0.5;exitDx=0;exitDy=0;entryX=-0.006;entryY=0.358;entryDx=0;entryDy=0;entryPerimeter=0;endArrow=none;endFill=0;" edge="1" parent="1" source="ld9ROGKfktrfoDJ3SX2z-39" target="ld9ROGKfktrfoDJ3SX2z-15">
          <mxGeometry relative="1" as="geometry" />
        </mxCell>
        <mxCell id="ld9ROGKfktrfoDJ3SX2z-45" style="rounded=0;orthogonalLoop=1;jettySize=auto;html=1;exitX=1;exitY=0.5;exitDx=0;exitDy=0;entryX=-0.013;entryY=0.502;entryDx=0;entryDy=0;entryPerimeter=0;endArrow=none;endFill=0;" edge="1" parent="1" source="ld9ROGKfktrfoDJ3SX2z-40" target="ld9ROGKfktrfoDJ3SX2z-15">
          <mxGeometry relative="1" as="geometry" />
        </mxCell>
        <mxCell id="ld9ROGKfktrfoDJ3SX2z-46" style="rounded=0;orthogonalLoop=1;jettySize=auto;html=1;exitX=1;exitY=0.5;exitDx=0;exitDy=0;entryX=-0.006;entryY=0.706;entryDx=0;entryDy=0;entryPerimeter=0;endArrow=none;endFill=0;" edge="1" parent="1" source="ld9ROGKfktrfoDJ3SX2z-41" target="ld9ROGKfktrfoDJ3SX2z-15">
          <mxGeometry relative="1" as="geometry" />
        </mxCell>
        <mxCell id="ld9ROGKfktrfoDJ3SX2z-47" style="rounded=0;orthogonalLoop=1;jettySize=auto;html=1;exitX=1;exitY=0.5;exitDx=0;exitDy=0;entryX=-0.004;entryY=0.9;entryDx=0;entryDy=0;entryPerimeter=0;endArrow=none;endFill=0;" edge="1" parent="1" source="ld9ROGKfktrfoDJ3SX2z-42" target="ld9ROGKfktrfoDJ3SX2z-15">
          <mxGeometry relative="1" as="geometry" />
        </mxCell>
      </root>
    </mxGraphModel>
  </diagram>
</mxfile>
